<svg width="23" height="23" viewBox="0 0 23 23" fill="none" xmlns="http://www.w3.org/2000/svg">
<path d="M13.1357 20.7334L12.0518 21.8174C11.5928 22.2764 10.8506 22.2764 10.3965 21.8174L0.904297 12.3301C0.445313 11.8711 0.445313 11.1289 0.904297 10.6748L10.3965 1.18262C10.8555 0.723633 11.5977 0.723633 12.0518 1.18262L13.1357 2.2666C13.5996 2.73047 13.5898 3.4873 13.1162 3.94141L7.23242 9.54688H21.2656C21.915 9.54688 22.4375 10.0693 22.4375 10.7188V12.2813C22.4375 12.9307 21.915 13.4531 21.2656 13.4531H7.23242L13.1162 19.0586C13.5947 19.5127 13.6045 20.2695 13.1357 20.7334Z" fill="white"/>
</svg>
